<svg width="36" height="36" viewBox="0 0 36 36" fill="none" xmlns="http://www.w3.org/2000/svg">
<rect width="36" height="36" rx="8" fill="#71C4E1" fill-opacity="0.24"/>
<g clip-path="url(#clip0_1_14)">
<path d="M15.5 23.8333C11.3333 25.0833 11.3333 21.75 9.66667 21.3333M21.3333 26.3333V23.1083C21.3646 22.711 21.3109 22.3115 21.1759 21.9365C21.0408 21.5615 20.8274 21.2195 20.55 20.9333C23.1667 20.6417 25.9167 19.65 25.9167 15.1C25.9165 13.9365 25.4689 12.8177 24.6667 11.975C25.0466 10.9571 25.0197 9.83196 24.5917 8.83333C24.5917 8.83333 23.6083 8.54167 21.3333 10.0667C19.4233 9.54902 17.41 9.54902 15.5 10.0667C13.225 8.54167 12.2417 8.83333 12.2417 8.83333C11.8137 9.83196 11.7868 10.9571 12.1667 11.975C11.3584 12.8239 10.9104 13.9529 10.9167 15.125C10.9167 19.6417 13.6667 20.6333 16.2833 20.9583C16.0092 21.2416 15.7977 21.5795 15.6628 21.9499C15.5278 22.3204 15.4723 22.7151 15.5 23.1083V26.3333" stroke="#6ED7D8" stroke-width="2" stroke-linecap="round" stroke-linejoin="round"/>
</g>
<defs>
<clipPath id="clip0_1_14">
<rect width="20" height="20" fill="white" transform="translate(8 8)"/>
</clipPath>
</defs>
</svg>
